<svg height="512pt" viewBox="0 -30 512 512" width="512pt" xmlns="http://www.w3.org/2000/svg"><path d="m512 281.597656c0-14.113281-11.484375-25.601562-25.601562-25.601562h-460.796876c-14.117187 0-25.601562 11.488281-25.601562 25.601562 0 13.953125 11.230469 25.292969 25.121094 25.550782 11 14.71875 30.722656 29.832031 51.628906 45.769531 36.027344 27.460937 76.847656 58.589843 76.847656 90.8125v8.535156h204.800782v-8.535156c0-32.222657 40.824218-63.351563 76.851562-90.8125 20.898438-15.9375 40.625-31.050781 51.625-45.769531 13.894531-.257813 25.125-11.597657 25.125-25.550782zm-486.398438-8.53125h460.800782c4.707031 0 8.53125 3.820313 8.53125 8.53125 0 4.710938-3.824219 8.535156-8.53125 8.535156h-460.800782c-4.710937 0-8.535156-3.824218-8.535156-8.535156 0-4.710937 3.824219-8.53125 8.535156-8.53125zm144.417969 162.132813c-.4375-2.886719-1.160156-5.71875-2.015625-8.535157h175.992188c-.851563 2.816407-1.570313 5.648438-2.011719 8.535157zm254.878907-95.847657c-27.664063 21.09375-57.894532 44.175782-73.292969 70.246094h-191.210938c-15.398437-26.070312-45.628906-49.152344-73.292969-70.246094-14.789062-11.273437-29.015624-22.117187-39.253906-32.152343h416.296875c-10.230469 10.035156-24.457031 20.871093-39.246093 32.152343zm0 0"/><path d="m85.332031 247.464844c4.71875 0 8.535157-3.816406 8.535157-8.535156 0-42.351563 34.449218-76.800782 76.800781-76.800782h17.066406c4.71875 0 8.53125-3.8125 8.53125-8.53125s-3.8125-8.535156-8.53125-8.535156h-17.066406c-51.753907 0-93.867188 42.113281-93.867188 93.867188 0 4.71875 3.8125 8.535156 8.53125 8.535156zm0 0"/><path d="m213.332031 196.265625h-42.664062c-23.527344 0-42.667969 19.136719-42.667969 42.664063 0 4.71875 3.816406 8.535156 8.535156 8.535156s8.53125-3.816406 8.53125-8.535156c0-14.113282 11.488282-25.601563 25.601563-25.601563h42.667969c4.71875 0 8.53125-3.8125 8.53125-8.53125s-3.816407-8.53125-8.535157-8.53125zm0 0"/><path d="m204.800781 187.730469c4.71875 0 8.53125-3.8125 8.53125-8.53125s-3.8125-8.535157-8.53125-8.535157h-34.132812c-37.640625 0-68.269531 30.628907-68.269531 68.269532 0 4.71875 3.816406 8.53125 8.535156 8.53125s8.535156-3.8125 8.535156-8.53125c0-28.238282 22.960938-51.203125 51.199219-51.203125zm0 0"/><path d="m213.332031 221.863281h-42.664062c-4.71875 0-8.535157 3.816407-8.535157 8.535157s3.816407 8.535156 8.535157 8.535156h42.664062c4.71875 0 8.535157-3.816406 8.535157-8.535156s-3.816407-8.535157-8.535157-8.535157zm0 0"/><path d="m273.066406 145.066406c-4.71875 0-8.535156 3.8125-8.535156 8.53125s3.816406 8.535156 8.535156 8.535156h59.734375c42.347657 0 76.800781 34.445313 76.800781 76.800782 0 4.71875 3.8125 8.53125 8.53125 8.53125s8.535157-3.8125 8.535157-8.53125c0-51.753906-42.113281-93.867188-93.867188-93.867188zm0 0"/><path d="m358.398438 238.933594c0 4.71875 3.816406 8.53125 8.535156 8.53125s8.53125-3.8125 8.53125-8.53125c0-23.527344-19.136719-42.667969-42.664063-42.667969h-42.667969c-4.71875 0-8.53125 3.816406-8.53125 8.535156s3.8125 8.53125 8.53125 8.53125h42.667969c14.113281 0 25.597657 11.484375 25.597657 25.601563zm0 0"/><path d="m392.53125 247.464844c4.722656 0 8.535156-3.816406 8.535156-8.535156 0-37.640626-30.625-68.265626-68.265625-68.265626h-51.199219c-4.722656 0-8.535156 3.8125-8.535156 8.53125 0 4.722657 3.8125 8.535157 8.535156 8.535157h51.199219c28.234375 0 51.199219 22.964843 51.199219 51.199219 0 4.71875 3.8125 8.535156 8.53125 8.535156zm0 0"/><path d="m290.132812 221.863281c-4.71875 0-8.53125 3.816407-8.53125 8.535157s3.8125 8.535156 8.53125 8.535156h42.667969c4.71875 0 8.53125-3.816406 8.53125-8.535156s-3.8125-8.535157-8.53125-8.535157zm0 0"/><path d="m238.933594 247.464844c4.71875 0 8.535156-3.816406 8.535156-8.535156 0-105.789063-46.40625-128-85.335938-128-14.113281 0-25.597656 11.484374-25.597656 25.601562 0 4.71875 3.8125 8.535156 8.53125 8.535156s8.535156-3.816406 8.535156-8.535156c0-4.710938 3.824219-8.535156 8.53125-8.535156 45.9375 0 68.269532 36.285156 68.269532 110.933594-.003906 4.71875 3.8125 8.535156 8.53125 8.535156zm0 0"/><path d="m110.933594 162.132812c4.71875 0 8.535156-3.816406 8.535156-8.535156v-8.53125c0-23.527344 19.136719-42.667968 42.664062-42.667968 84.71875 0 93.867188 95.480468 93.867188 136.53125 0 4.71875 3.8125 8.535156 8.53125 8.535156 4.722656 0 8.535156-3.816406 8.535156-8.535156 0-96.179688-41.464844-153.597657-110.933594-153.597657-32.929687 0-59.734374 26.800781-59.734374 59.734375v8.53125c0 4.71875 3.816406 8.535156 8.535156 8.535156zm0 0"/><path d="m281.601562 136.53125c18.824219 0 34.132813-15.308594 34.132813-34.132812 0-18.824219-15.308594-34.132813-34.132813-34.132813-18.824218 0-34.132812 15.308594-34.132812 34.132813 0 18.824218 15.304688 34.132812 34.132812 34.132812zm0-51.199219c9.410157 0 17.066407 7.652344 17.066407 17.066407 0 9.414062-7.65625 17.066406-17.066407 17.066406-9.414062 0-17.070312-7.652344-17.070312-17.066406 0-9.414063 7.65625-17.066407 17.070312-17.066407zm0 0"/><path d="m217.601562 93.863281c21.171876 0 38.398438-17.226562 38.398438-38.398437s-17.226562-38.402344-38.398438-38.402344c-21.171874 0-38.402343 17.230469-38.402343 38.402344s17.230469 38.398437 38.402343 38.398437zm0-59.730469c11.765626 0 21.332032 9.5625 21.332032 21.332032 0 11.765625-9.566406 21.332031-21.332032 21.332031-11.769531 0-21.335937-9.566406-21.335937-21.332031 0-11.769532 9.566406-21.332032 21.335937-21.332032zm0 0"/><path d="m324.265625 110.933594c0 18.820312 15.308594 34.132812 34.132813 34.132812 18.824218 0 34.132812-15.3125 34.132812-34.132812 0-18.824219-15.308594-34.132813-34.132812-34.132813-18.824219 0-34.132813 15.308594-34.132813 34.132813zm34.132813-17.070313c9.414062 0 17.066406 7.65625 17.066406 17.070313 0 9.410156-7.652344 17.066406-17.066406 17.066406-9.414063 0-17.066407-7.65625-17.066407-17.066406 0-9.414063 7.65625-17.070313 17.066407-17.070313zm0 0"/><path d="m307.199219 68.265625c18.824219 0 34.132812-15.308594 34.132812-34.132813 0-18.824218-15.308593-34.132812-34.132812-34.132812s-34.132813 15.308594-34.132813 34.132812c0 18.824219 15.308594 34.132813 34.132813 34.132813zm0-51.199219c9.414062 0 17.066406 7.652344 17.066406 17.066406 0 9.414063-7.652344 17.066407-17.066406 17.066407-9.414063 0-17.066407-7.652344-17.066407-17.066407 0-9.414062 7.65625-17.066406 17.066407-17.066406zm0 0"/></svg>